<svg id="visual" viewBox="0 0 960 540" width="960" height="540" xmlns="http://www.w3.org/2000/svg" xmlns:xlink="http://www.w3.org/1999/xlink" version="1.1"><rect x="0" y="0" width="960" height="540" fill="#000000"></rect><defs><linearGradient id="grad1_0" x1="43.8%" y1="0%" x2="100%" y2="100%"><stop offset="14.444444444444446%" stop-color="#000000" stop-opacity="1"></stop><stop offset="85.55555555555554%" stop-color="#000000" stop-opacity="1"></stop></linearGradient></defs><defs><linearGradient id="grad2_0" x1="0%" y1="0%" x2="56.3%" y2="100%"><stop offset="14.444444444444446%" stop-color="#000000" stop-opacity="1"></stop><stop offset="85.55555555555554%" stop-color="#000000" stop-opacity="1"></stop></linearGradient></defs><g transform="translate(960, 0)"><path d="M0 216C-33.5 203.2 -66.9 190.5 -100.5 174.1C-134.1 157.7 -167.8 137.6 -187.1 108C-206.3 78.4 -211.2 39.2 -216 0L0 0Z" fill="#0a0d33"></path></g><g transform="translate(0, 540)"><path d="M0 -216C11.1 -164.4 22.1 -112.9 58.5 -101.3C94.9 -89.8 156.6 -118.2 187.1 -108C217.5 -97.8 216.8 -48.9 216 0L0 0Z" fill="#0a0d33"></path></g></svg>